<svg enable-background="new 0 0 60 51" height="512" viewBox="0 0 60 51" width="512" xmlns="http://www.w3.org/2000/svg"><path d="m30 1-14 14h9v23h5 5v-23h9z" fill="#366db6"/><g fill="#4d007e"><path d="m59 51h-58c-.552 0-1-.447-1-1v-17c0-.553.448-1 1-1h20c.552 0 1 .447 1 1s-.448 1-1 1h-19v15h56v-15h-19c-.552 0-1-.447-1-1s.448-1 1-1h20c.552 0 1 .447 1 1v17c0 .553-.448 1-1 1z"/><path d="m35 39h-10c-.552 0-1-.447-1-1v-22h-8c-.404 0-.769-.243-.924-.617s-.069-.804.217-1.09l14-14c.391-.391 1.023-.391 1.414 0l14 14c.286.286.372.716.217 1.09s-.52.617-.924.617h-8v22c0 .553-.448 1-1 1zm-9-2h8v-22c0-.553.448-1 1-1h6.586l-11.586-11.586-11.586 11.586h6.586c.552 0 1 .447 1 1z"/></g></svg>